<svg width="19" height="23" viewBox="0 0 19 23" fill="none" xmlns="http://www.w3.org/2000/svg">
<path d="M9.49996 22.9999C8.1858 22.9999 6.95081 22.7506 5.79498 22.2518C4.63915 21.7531 3.63374 21.0762 2.77874 20.2212C1.92374 19.3662 1.24687 18.3608 0.748122 17.2049C0.249374 16.0491 0 14.8141 0 13.5H1.49996C1.49996 15.5 2.15061 17.2461 3.4519 18.7384C4.75319 20.2307 6.39358 21.1205 8.37307 21.4077L6.86537 19.9L7.9192 18.8461L11.7576 22.6846C11.3897 22.7999 11.016 22.8813 10.6365 22.9288C10.257 22.9762 9.87816 22.9999 9.49996 22.9999ZM10.1538 16.3461V10.6538H13.0384C13.3218 10.6538 13.5593 10.7497 13.7509 10.9413C13.9426 11.133 14.0384 11.3705 14.0384 11.6538V15.3461C14.0384 15.6294 13.9426 15.8669 13.7509 16.0586C13.5593 16.2503 13.3218 16.3461 13.0384 16.3461H10.1538ZM4.9615 16.3461V15.1538H7.65382V13.9423H5.9615V13.0577H7.65382V11.8461H4.9615V10.6538H7.99996C8.2397 10.6538 8.44066 10.7349 8.60284 10.8971C8.76502 11.0593 8.84611 11.2602 8.84611 11.5V15.5C8.84611 15.7397 8.76502 15.9407 8.60284 16.1028C8.44066 16.265 8.2397 16.3461 7.99996 16.3461H4.9615ZM11.3461 15.1538H12.7307C12.7692 15.1538 12.7981 15.1442 12.8173 15.125C12.8365 15.1057 12.8461 15.0769 12.8461 15.0384V11.9615C12.8461 11.923 12.8365 11.8942 12.8173 11.875C12.7981 11.8557 12.7692 11.8461 12.7307 11.8461H11.3461V15.1538ZM17.5 13.5C17.5 11.5 16.8493 9.7538 15.548 8.26149C14.2467 6.76918 12.6063 5.87944 10.6269 5.59227L12.1346 7.09996L11.0807 8.15378L7.24232 4.31537C7.61026 4.19999 7.98397 4.11859 8.36345 4.07115C8.74293 4.02372 9.12177 4 9.49996 4C10.8141 4 12.0491 4.24937 13.2049 4.74812C14.3608 5.24687 15.3662 5.92374 16.2212 6.77874C17.0762 7.63374 17.7531 8.63915 18.2518 9.79498C18.7506 10.9508 18.9999 12.1858 18.9999 13.5H17.5Z" fill="#755B00"/>
</svg>
