<svg width="29" height="23" viewBox="0 0 29 23" fill="none" xmlns="http://www.w3.org/2000/svg">
<path d="M14.2499 22.4999C11.9942 22.4999 9.79274 22.3936 7.64563 22.1811C5.49853 21.9686 3.4019 21.6037 1.35576 21.0864C0.878839 19.4768 0.533649 17.8562 0.32019 16.2244C0.10673 14.5927 0 12.9346 0 11.2499C0 9.56534 0.10673 7.90717 0.32019 6.27545C0.533649 4.64373 0.878839 3.02306 1.35576 1.41346C3.26345 0.942304 5.27931 0.58894 7.40334 0.353364C9.52737 0.117788 11.8096 0 14.2499 0C16.6903 0 18.9725 0.117788 21.0966 0.353364C23.2206 0.58894 25.2364 0.942304 27.1441 1.41346C27.621 3.02306 27.9662 4.64373 28.1797 6.27545C28.3932 7.90717 28.4999 9.56534 28.4999 11.2499C28.4999 12.9346 28.3893 14.5927 28.1682 16.2244C27.947 17.8562 27.6057 19.4768 27.1441 21.0864C25.098 21.6037 23.0014 21.9686 20.8543 22.1811C18.7072 22.3936 16.5057 22.4999 14.2499 22.4999ZM14.2499 20.2499C16.2019 20.2499 18.098 20.1639 19.9384 19.9918C21.7788 19.8197 23.5826 19.5307 25.3499 19.1249C25.6749 17.8249 25.9062 16.5249 26.0437 15.2249C26.1812 13.9249 26.2499 12.5999 26.2499 11.2499C26.2499 9.89994 26.1812 8.57495 26.0437 7.27495C25.9062 5.97495 25.6749 4.67494 25.3499 3.37495C23.7057 2.99995 21.9749 2.7187 20.1576 2.5312C18.3403 2.3437 16.3711 2.24995 14.2499 2.24995C12.1442 2.24995 10.1826 2.3437 8.36533 2.5312C6.54802 2.7187 4.80956 2.99995 3.14995 3.37495C2.82494 4.67494 2.5937 5.97495 2.4562 7.27495C2.3187 8.57495 2.24995 9.89994 2.24995 11.2499C2.24995 12.5999 2.3187 13.9249 2.4562 15.2249C2.5937 16.5249 2.82494 17.8249 3.14995 19.1249C4.91725 19.5307 6.72109 19.8197 8.56148 19.9918C10.4019 20.1639 12.298 20.2499 14.2499 20.2499Z" fill="#444748"/>
</svg>
