<svg width="16" height="15" viewBox="0 0 16 15" fill="none" xmlns="http://www.w3.org/2000/svg">
<path d="M7.40384 14.1666V12.9166H13.4935C13.563 12.9166 13.6231 12.8953 13.6738 12.8525C13.7246 12.8098 13.75 12.7537 13.75 12.6842V6.85573C13.75 5.26278 13.18 3.92171 12.04 2.8325C10.9001 1.74329 9.52561 1.19869 7.91664 1.19869C6.30766 1.19869 4.9332 1.74329 3.79324 2.8325C2.65328 3.92171 2.0833 5.26278 2.0833 6.85573V11.7628H1.45832C1.05875 11.7628 0.715805 11.6236 0.429483 11.3453C0.143161 11.067 0 10.7281 0 10.3285V8.7099C0 8.4396 0.0769234 8.19201 0.23077 7.96712C0.384617 7.74223 0.585471 7.56141 0.833333 7.42466L0.871793 6.36056C0.940166 5.45351 1.17574 4.61323 1.57852 3.83973C1.98129 3.06623 2.49785 2.39289 3.12819 1.81971C3.75853 1.24652 4.48609 0.799944 5.31087 0.479966C6.13566 0.159989 7.00425 0 7.91664 0C8.82903 0 9.69548 0.159989 10.516 0.479966C11.3365 0.799944 12.0641 1.24439 12.6987 1.8133C13.3333 2.3822 13.8498 3.05341 14.2483 3.82691C14.6468 4.60041 14.8846 5.44069 14.9615 6.34774L14.9999 7.391C15.2425 7.50532 15.442 7.66878 15.5985 7.88138C15.755 8.09399 15.8333 8.33116 15.8333 8.59292V10.4535C15.8333 10.7152 15.755 10.9524 15.5985 11.165C15.442 11.3776 15.2425 11.5411 14.9999 11.6554V12.6842C14.9999 13.0945 14.8528 13.4441 14.5584 13.7331C14.2641 14.0221 13.9091 14.1666 13.4935 14.1666H7.40384ZM5.5769 8.55765C5.37285 8.55765 5.19897 8.48847 5.05527 8.35012C4.91158 8.21176 4.83973 8.04056 4.83973 7.8365C4.83973 7.63244 4.91158 7.4599 5.05527 7.31888C5.19897 7.17786 5.37285 7.10734 5.5769 7.10734C5.78096 7.10734 5.95484 7.17786 6.09853 7.31888C6.24223 7.4599 6.31408 7.63244 6.31408 7.8365C6.31408 8.04056 6.24223 8.21176 6.09853 8.35012C5.95484 8.48847 5.78096 8.55765 5.5769 8.55765ZM10.2564 8.55765C10.0523 8.55765 9.87843 8.48847 9.73474 8.35012C9.59104 8.21176 9.5192 8.04056 9.5192 7.8365C9.5192 7.63244 9.59104 7.4599 9.73474 7.31888C9.87843 7.17786 10.0523 7.10734 10.2564 7.10734C10.4604 7.10734 10.6343 7.17786 10.778 7.31888C10.9217 7.4599 10.9935 7.63244 10.9935 7.8365C10.9935 8.04056 10.9217 8.21176 10.778 8.35012C10.6343 8.48847 10.4604 8.55765 10.2564 8.55765ZM3.22595 7.24995C3.13941 5.88992 3.56249 4.7262 4.49518 3.75879C5.42787 2.79138 6.58224 2.30768 7.9583 2.30768C9.11428 2.30768 10.1343 2.66531 11.0184 3.38059C11.9025 4.09586 12.4391 5.02187 12.6282 6.15862C11.4444 6.14473 10.3507 5.83383 9.34692 5.22593C8.34318 4.61803 7.57262 3.7847 7.03523 2.72594C6.82369 3.76226 6.38032 4.67839 5.70511 5.47433C5.0299 6.27026 4.20351 6.86214 3.22595 7.24995Z" fill="#241A00"/>
</svg>
