<svg width="32" height="21" viewBox="0 0 32 21" fill="none" xmlns="http://www.w3.org/2000/svg">
<path d="M15.6956 16.6153C17.3953 16.6153 18.8389 16.0204 20.0264 14.8307C21.2138 13.6409 21.8076 12.1962 21.8076 10.4966C21.8076 8.7969 21.2127 7.35333 20.023 6.16584C18.8332 4.97835 17.3885 4.38461 15.6889 4.38461C13.9892 4.38461 12.5456 4.97948 11.3581 6.16924C10.1707 7.35899 9.57691 8.80369 9.57691 10.5033C9.57691 12.203 10.1718 13.6466 11.3615 14.834C12.5513 16.0215 13.996 16.6153 15.6956 16.6153ZM15.6922 14.5499C14.5672 14.5499 13.611 14.1562 12.8235 13.3687C12.036 12.5812 11.6422 11.6249 11.6422 10.4999C11.6422 9.37494 12.036 8.4187 12.8235 7.6312C13.611 6.8437 14.5672 6.44994 15.6922 6.44994C16.8172 6.44994 17.7735 6.8437 18.561 7.6312C19.3485 8.4187 19.7422 9.37494 19.7422 10.4999C19.7422 11.6249 19.3485 12.5812 18.561 13.3687C17.7735 14.1562 16.8172 14.5499 15.6922 14.5499ZM15.6943 20.9999C12.2449 20.9999 9.10189 20.0485 6.26537 18.1456C3.42884 16.2427 1.34038 13.6942 0 10.4999C1.34038 7.30573 3.42815 4.75719 6.26331 2.85431C9.09846 0.951437 12.2408 0 15.6902 0C19.1396 0 22.2826 0.951437 25.1191 2.85431C27.9557 4.75719 30.0441 7.30573 31.3845 10.4999C30.0441 13.6942 27.9563 16.2427 25.1212 18.1456C22.286 20.0485 19.1437 20.9999 15.6943 20.9999ZM15.6922 18.7499C18.5172 18.7499 21.111 18.0062 23.4735 16.5187C25.836 15.0312 27.6422 13.0249 28.8922 10.4999C27.6422 7.97494 25.836 5.96869 23.4735 4.48119C21.111 2.9937 18.5172 2.24995 15.6922 2.24995C12.8672 2.24995 10.2735 2.9937 7.911 4.48119C5.5485 5.96869 3.74225 7.97494 2.49225 10.4999C3.74225 13.0249 5.5485 15.0312 7.911 16.5187C10.2735 18.0062 12.8672 18.7499 15.6922 18.7499Z" fill="#755B00"/>
</svg>
