<svg width="27" height="24" viewBox="0 0 27 24" fill="none" xmlns="http://www.w3.org/2000/svg">
<path d="M6.27404 23.7499C5.65265 23.7499 5.1207 23.5287 4.6782 23.0862C4.23569 22.6436 4.01444 22.1117 4.01444 21.4903V17.8124H5.8894V21.4903C5.8894 21.6025 5.92546 21.6947 5.99758 21.7668C6.0697 21.8389 6.16185 21.875 6.27404 21.875H20.5048C20.6169 21.875 20.7091 21.8389 20.7812 21.7668C20.8533 21.6947 20.8894 21.6025 20.8894 21.4903V17.8124H22.7644V21.4903C22.7644 22.1117 22.5431 22.6436 22.1006 23.0862C21.6581 23.5287 21.1261 23.7499 20.5048 23.7499H6.27404ZM4.01444 10.9375V2.2596C4.01444 1.63821 4.23569 1.10626 4.6782 0.663757C5.1207 0.221252 5.65265 0 6.27404 0H16.2019L22.7644 6.56243V10.9375H20.8894V7.49991H15.2644V1.87495H6.27404C6.16185 1.87495 6.0697 1.91101 5.99758 1.98314C5.92546 2.05526 5.8894 2.14741 5.8894 2.2596V10.9375H4.01444ZM0 15.3124V13.4375H26.7788V15.3124H0Z" fill="#755B00"/>
</svg>
