<svg width="29" height="29" viewBox="0 0 29 29" fill="none" xmlns="http://www.w3.org/2000/svg">
<path d="M2.71152 28.673C1.95383 28.673 1.31249 28.4105 0.787493 27.8855C0.262498 27.3605 0 26.7191 0 25.9615V5.88461C0 5.12692 0.262498 4.48558 0.787493 3.96058C1.31249 3.43559 1.95383 3.17309 2.71152 3.17309H4.78848V0H7.09612V3.17309H18.4615V0H20.7114V3.17309H22.7884C23.5461 3.17309 24.1874 3.43559 24.7124 3.96058C25.2374 4.48558 25.4999 5.12692 25.4999 5.88461V13.3846H23.2499V11.8846H2.24995V25.9615C2.24995 26.0769 2.29803 26.1826 2.39419 26.2788C2.49035 26.375 2.59612 26.423 2.71152 26.423H12.6346V28.673H2.71152ZM2.24995 9.63466H23.2499V5.88461C23.2499 5.76921 23.2019 5.66344 23.1057 5.56728C23.0095 5.47112 22.9038 5.42303 22.7884 5.42303H2.71152C2.59612 5.42303 2.49035 5.47112 2.39419 5.56728C2.29803 5.66344 2.24995 5.76921 2.24995 5.88461V9.63466ZM2.24995 9.63466V5.88461C2.24995 5.74998 2.24995 5.6394 2.24995 5.55285C2.24995 5.46631 2.24995 5.42303 2.24995 5.42303C2.24995 5.42303 2.24995 5.46631 2.24995 5.55285C2.24995 5.6394 2.24995 5.74998 2.24995 5.88461V9.63466ZM15.923 28.673V24.7096L24.0663 16.6038C24.2528 16.4173 24.4547 16.286 24.6721 16.2101C24.8894 16.1341 25.1067 16.0961 25.324 16.0961C25.5567 16.0961 25.784 16.1404 26.0062 16.2288C26.2283 16.3173 26.4278 16.45 26.6047 16.6269L27.9922 18.0288C28.1537 18.2153 28.2787 18.4173 28.3672 18.6346C28.4557 18.8519 28.4999 19.0692 28.4999 19.2865C28.4999 19.5038 28.4595 19.7249 28.3787 19.9499C28.298 20.1749 28.1691 20.3807 27.9922 20.5672L19.8864 28.673H15.923ZM26.7115 19.2865L25.324 17.8846L26.7115 19.2865ZM17.7115 26.8846H19.1365L24.0057 21.9922L23.3163 21.2797L22.6182 20.5759L17.7115 25.4596V26.8846ZM23.3163 21.2797L22.6182 20.5759L24.0057 21.9922L23.3163 21.2797Z" fill="#755B00"/>
</svg>
