<svg width="80" height="80" viewBox="0 0 80 80" fill="none" xmlns="http://www.w3.org/2000/svg">
<rect width="80" height="80" rx="40" fill="black"/>
<path d="M28.4615 53.8748C27.7038 53.8748 27.0625 53.6123 26.5375 53.0873C26.0125 52.5623 25.75 51.921 25.75 51.1633V34.0865C25.75 33.3288 26.0125 32.6874 26.5375 32.1624C27.0625 31.6374 27.7038 31.3749 28.4615 31.3749H34.75V28.8365C34.75 28.0788 35.0125 27.4375 35.5375 26.9125C36.0625 26.3875 36.7038 26.125 37.4615 26.125H42.5384C43.2961 26.125 43.9374 26.3875 44.4624 26.9125C44.9874 27.4375 45.2499 28.0788 45.2499 28.8365V31.3749H51.5384C52.2961 31.3749 52.9374 31.6374 53.4624 32.1624C53.9874 32.6874 54.2499 33.3288 54.2499 34.0865V51.1633C54.2499 51.921 53.9874 52.5623 53.4624 53.0873C52.9374 53.6123 52.2961 53.8748 51.5384 53.8748H28.4615ZM28.4615 51.6249H51.5384C51.6538 51.6249 51.7595 51.5768 51.8557 51.4806C51.9519 51.3845 51.9999 51.2787 51.9999 51.1633V34.0865C51.9999 33.9711 51.9519 33.8653 51.8557 33.7691C51.7595 33.673 51.6538 33.6249 51.5384 33.6249H28.4615C28.3461 33.6249 28.2403 33.673 28.1442 33.7691C28.048 33.8653 27.9999 33.9711 27.9999 34.0865V51.1633C27.9999 51.2787 28.048 51.3845 28.1442 51.4806C28.2403 51.5768 28.3461 51.6249 28.4615 51.6249ZM36.9999 31.3749H42.9999V28.8365C42.9999 28.7211 42.9519 28.6153 42.8557 28.5192C42.7595 28.423 42.6538 28.3749 42.5384 28.3749H37.4615C37.3461 28.3749 37.2403 28.423 37.1442 28.5192C37.048 28.6153 36.9999 28.7211 36.9999 28.8365V31.3749ZM27.9999 51.6249C27.9999 51.6249 27.9999 51.5768 27.9999 51.4806C27.9999 51.3845 27.9999 51.2787 27.9999 51.1633V34.0865C27.9999 33.9711 27.9999 33.8653 27.9999 33.7691C27.9999 33.673 27.9999 33.6249 27.9999 33.6249C27.9999 33.6249 27.9999 33.673 27.9999 33.7691C27.9999 33.8653 27.9999 33.9711 27.9999 34.0865V51.1633C27.9999 51.2787 27.9999 51.3845 27.9999 51.4806C27.9999 51.5768 27.9999 51.6249 27.9999 51.6249ZM38.875 43.7499V48.2499H41.1249V43.7499H45.6249V41.4999H41.1249V36.9999H38.875V41.4999H34.375V43.7499H38.875Z" fill="#FFE08F"/>
</svg>
