<svg width="22" height="22" viewBox="0 0 22 22" fill="none" xmlns="http://www.w3.org/2000/svg">
<path d="M1.25 21.661V18.7765H5.07692L1.86538 8.26684C1.31089 7.97838 0.861374 7.56011 0.516825 7.01204C0.172275 6.46397 0 5.8582 0 5.19474C0 4.24122 0.334533 3.42993 1.0036 2.76086C1.67267 2.0918 2.48396 1.75726 3.43748 1.75726C4.22594 1.75726 4.91584 1.99164 5.50718 2.46039C6.09852 2.92914 6.50317 3.5281 6.72112 4.25726H11.0096V2.69474C11.0096 2.42872 11.0993 2.20597 11.2788 2.02649C11.4583 1.847 11.6811 1.75726 11.9471 1.75726C12.1105 1.75726 12.2628 1.79893 12.4038 1.88226C12.5448 1.9656 12.6538 2.08258 12.7307 2.23322V2.4015L14.9278 0.353423C15.1073 0.173936 15.3153 0.0621582 15.5516 0.0180883C15.788 -0.0259816 16.0192 0.0104767 16.2451 0.127463L21.048 2.35342C21.2499 2.45438 21.3938 2.60061 21.4795 2.79212C21.5652 2.98362 21.564 3.17392 21.4759 3.36302C21.3749 3.56494 21.2287 3.69435 21.0372 3.75124C20.8457 3.80812 20.6554 3.7925 20.4663 3.70436L15.8461 1.56974L12.8846 4.31974V6.06974L15.8461 8.75724L20.4663 6.62262C20.6554 6.53448 20.8489 6.52206 21.0468 6.58536C21.2447 6.64866 21.3878 6.77486 21.4759 6.96396C21.5769 7.16588 21.5813 7.35938 21.4891 7.54448C21.397 7.72957 21.2499 7.8726 21.048 7.97356L16.2451 10.238C16.0192 10.355 15.788 10.3894 15.5516 10.3413C15.3153 10.2933 15.1073 10.1835 14.9278 10.012L12.7307 7.98798V8.15626C12.6538 8.28126 12.5448 8.39183 12.4038 8.48799C12.2628 8.58414 12.1105 8.63222 11.9471 8.63222C11.6811 8.63222 11.4583 8.54247 11.2788 8.36299C11.0993 8.18351 11.0096 7.96076 11.0096 7.69474V6.13222H6.72112C6.65862 6.35498 6.57288 6.57133 6.4639 6.78127C6.35492 6.99121 6.22591 7.18352 6.07687 7.3582L12.2307 18.7765H16.875V21.661H1.25ZM3.43748 6.75726C3.87178 6.75726 4.24077 6.60542 4.54446 6.30173C4.84815 5.99804 5 5.62904 5 5.19474C5 4.76044 4.84815 4.39144 4.54446 4.08775C4.24077 3.78406 3.87178 3.63222 3.43748 3.63222C3.00318 3.63222 2.63418 3.78406 2.33049 4.08775C2.0268 4.39144 1.87495 4.76044 1.87495 5.19474C1.87495 5.62904 2.0268 5.99804 2.33049 6.30173C2.63418 6.60542 3.00318 6.75726 3.43748 6.75726ZM7.01437 18.7765H10.0769L4.55768 8.51202C4.49357 8.55208 4.3926 8.58614 4.25478 8.61419C4.11695 8.64223 3.99995 8.64824 3.90379 8.63222L7.01437 18.7765Z" fill="#755B00"/>
</svg>
