<svg width="40" height="38" viewBox="0 0 40 38" fill="none" xmlns="http://www.w3.org/2000/svg">
<g filter="url(#filter0_d_347_843)">
<rect x="2" y="1" width="35.4999" height="33.8333" rx="16.9166" fill="white" fill-opacity="0.01" shape-rendering="crispEdges"/>
<rect x="2.5" y="1.5" width="34.4999" height="32.8333" rx="16.4166" stroke="#C4C7C7" shape-rendering="crispEdges"/>
<path d="M17.2512 24.1666C15.5068 24.1666 14.0288 23.5613 12.8173 22.3506C11.6058 21.1399 11 19.6623 11 17.9179C11 16.1735 11.6053 14.6955 12.816 13.484C14.0267 12.2724 15.5043 11.6667 17.2487 11.6667C18.9931 11.6667 20.4711 12.272 21.6826 13.4827C22.8942 14.6934 23.4999 16.1709 23.4999 17.9154C23.4999 19.6598 22.8946 21.1378 21.6839 22.3493C20.4732 23.5608 18.9957 24.1666 17.2512 24.1666ZM17.25 22.9166C18.6389 22.9166 19.8194 22.4305 20.7916 21.4583C21.7639 20.4861 22.25 19.3055 22.25 17.9166C22.25 17.7316 22.239 17.555 22.2171 17.3869C22.1952 17.2187 22.1624 17.0448 22.1186 16.8653C22.0438 16.8814 21.9676 16.8934 21.8902 16.9014C21.8127 16.9094 21.7366 16.9134 21.6618 16.9134C20.6607 16.9925 19.7011 16.8498 18.7828 16.4855C17.8645 16.1212 17.0657 15.571 16.3862 14.8349C15.9278 15.5892 15.3386 16.2251 14.6186 16.7427C13.8985 17.2604 13.1089 17.6196 12.25 17.8205V17.8445C12.2275 19.242 12.7038 20.4367 13.6787 21.4287C14.6535 22.4206 15.844 22.9166 17.25 22.9166ZM15.2348 19.431C15.0227 19.431 14.8448 19.3587 14.7011 19.2141C14.5574 19.0695 14.4856 18.8902 14.4856 18.6764C14.4856 18.4626 14.5577 18.2839 14.7021 18.1402C14.8465 17.9965 15.0254 17.9246 15.2388 17.9246C15.4482 17.9246 15.626 17.997 15.7724 18.1416C15.9188 18.2862 15.992 18.4654 15.992 18.6793C15.992 18.8931 15.9188 19.0718 15.7724 19.2155C15.626 19.3592 15.4468 19.431 15.2348 19.431ZM19.2598 19.431C19.046 19.431 18.8672 19.3587 18.7235 19.2141C18.5798 19.0695 18.508 18.8902 18.508 18.6764C18.508 18.4626 18.5803 18.2839 18.7249 18.1402C18.8696 17.9965 19.0488 17.9246 19.2626 17.9246C19.4764 17.9246 19.6551 17.997 19.7988 18.1416C19.9425 18.2862 20.0144 18.4654 20.0144 18.6793C20.0144 18.8931 19.9421 19.0718 19.7974 19.2155C19.6528 19.3592 19.4736 19.431 19.2598 19.431ZM15.8205 13.1202C15.0117 13.3659 14.3186 13.7836 13.7411 14.3734C13.1637 14.9631 12.7516 15.6576 12.5048 16.4567C13.2943 16.1811 13.9845 15.7524 14.5753 15.1707C15.1661 14.5889 15.5812 13.9054 15.8205 13.1202ZM17.1522 12.9166C17.0614 12.9166 16.9706 12.9233 16.8798 12.9367C16.7889 12.95 16.6981 12.9701 16.6073 12.9968C17.0656 13.8472 17.7141 14.5141 18.5528 14.9976C19.3915 15.481 20.2959 15.7115 21.266 15.6891C21.3408 15.6891 21.4116 15.6864 21.4783 15.6811C21.5451 15.6757 21.6132 15.6624 21.6827 15.641C21.251 14.7906 20.6266 14.1196 19.8093 13.6282C18.992 13.1367 18.1063 12.8995 17.1522 12.9166ZM23.9086 25.8333V22.0753H24.9022V24.4599C25.7077 23.5432 26.3432 22.5304 26.8084 21.4214C27.2737 20.3125 27.5064 19.1469 27.5064 17.9246C27.5064 16.7024 27.2737 15.5355 26.8084 14.4238C26.3432 13.3122 25.7077 12.298 24.9022 11.3814V13.758H23.9086V10H27.6666V11.0016H25.891C26.7051 11.9856 27.3434 13.0643 27.806 14.238C28.2686 15.4116 28.4999 16.6405 28.4999 17.9246C28.4999 19.2088 28.2686 20.4377 27.806 21.6113C27.3434 22.785 26.7051 23.8611 25.891 24.8397H27.6666V25.8333H23.9086Z" fill="#444748"/>
</g>
<defs>
<filter id="filter0_d_347_843" x="0" y="0" width="39.5" height="37.834" filterUnits="userSpaceOnUse" color-interpolation-filters="sRGB">
<feFlood flood-opacity="0" result="BackgroundImageFix"/>
<feColorMatrix in="SourceAlpha" type="matrix" values="0 0 0 0 0 0 0 0 0 0 0 0 0 0 0 0 0 0 127 0" result="hardAlpha"/>
<feOffset dy="1"/>
<feGaussianBlur stdDeviation="1"/>
<feComposite in2="hardAlpha" operator="out"/>
<feColorMatrix type="matrix" values="0 0 0 0 0 0 0 0 0 0 0 0 0 0 0 0 0 0 0.05 0"/>
<feBlend mode="normal" in2="BackgroundImageFix" result="effect1_dropShadow_347_843"/>
<feBlend mode="normal" in="SourceGraphic" in2="effect1_dropShadow_347_843" result="shape"/>
</filter>
</defs>
</svg>
