<svg width="37" height="38" viewBox="0 0 37 38" fill="none" xmlns="http://www.w3.org/2000/svg">
<g filter="url(#filter0_d_347_845)">
<rect x="2" y="1" width="32.1666" height="33.8333" rx="16.0833" fill="white" fill-opacity="0.01" shape-rendering="crispEdges"/>
<rect x="2.5" y="1.5" width="31.1666" height="32.8333" rx="15.5833" stroke="#C4C7C7" shape-rendering="crispEdges"/>
<path d="M22.9211 25.8333C22.2974 25.8333 21.7679 25.6151 21.3325 25.1789C20.8971 24.7426 20.6795 24.2129 20.6795 23.5897C20.6795 23.5064 20.7083 23.3039 20.766 22.9823L14.8397 19.4935C14.6389 19.7019 14.4003 19.8651 14.1239 19.9831C13.8475 20.1012 13.5514 20.1602 13.2356 20.1602C12.6146 20.1602 12.0867 19.9412 11.652 19.5032C11.2173 19.0651 11 18.5363 11 17.9166C11 17.297 11.2173 16.7681 11.652 16.3301C12.0867 15.8921 12.6146 15.6731 13.2356 15.6731C13.5514 15.6731 13.8475 15.7321 14.1239 15.8501C14.4003 15.9682 14.6389 16.1314 14.8397 16.3397L20.766 12.859C20.7329 12.7564 20.7102 12.656 20.6979 12.5577C20.6856 12.4594 20.6795 12.3547 20.6795 12.2436C20.6795 11.6204 20.8978 11.0906 21.3344 10.6544C21.771 10.2181 22.3012 10 22.9249 10C23.5487 10 24.0782 10.2183 24.5136 10.6549C24.9489 11.0915 25.1666 11.6217 25.1666 12.2455C25.1666 12.8692 24.9485 13.3987 24.5122 13.8341C24.076 14.2695 23.5462 14.4871 22.923 14.4871C22.6057 14.4871 22.3106 14.4268 22.0376 14.3061C21.7647 14.1853 21.5277 14.0208 21.3269 13.8125L15.4006 17.3012C15.4337 17.4038 15.4564 17.5042 15.4687 17.6025C15.481 17.7008 15.4871 17.8055 15.4871 17.9166C15.4871 18.0277 15.481 18.1324 15.4687 18.2307C15.4564 18.329 15.4337 18.4295 15.4006 18.532L21.3269 22.0208C21.5277 21.8125 21.7647 21.6479 22.0376 21.5272C22.3106 21.4065 22.6057 21.3461 22.923 21.3461C23.5462 21.3461 24.076 21.5644 24.5122 22.0011C24.9485 22.4377 25.1666 22.9678 25.1666 23.5916C25.1666 24.2153 24.9483 24.7449 24.5117 25.1802C24.0751 25.6156 23.5449 25.8333 22.9211 25.8333ZM22.9258 24.5833C23.2082 24.5833 23.4439 24.4878 23.633 24.2968C23.8221 24.1059 23.9166 23.8692 23.9166 23.5869C23.9166 23.3046 23.8217 23.0689 23.6318 22.8798C23.4419 22.6907 23.2066 22.5961 22.9258 22.5961C22.6451 22.5961 22.4089 22.6911 22.2171 22.881C22.0253 23.0709 21.9294 23.3062 21.9294 23.5869C21.9294 23.8676 22.0249 24.1039 22.2159 24.2956C22.4069 24.4874 22.6435 24.5833 22.9258 24.5833ZM13.2356 18.9102C13.5193 18.9102 13.7572 18.8144 13.9492 18.6226C14.1412 18.4308 14.2372 18.1955 14.2372 17.9166C14.2372 17.6378 14.1412 17.4025 13.9492 17.2107C13.7572 17.0189 13.5193 16.923 13.2356 16.923C12.9563 16.923 12.7222 17.0189 12.5333 17.2107C12.3444 17.4025 12.25 17.6378 12.25 17.9166C12.25 18.1955 12.3444 18.4308 12.5333 18.6226C12.7222 18.8144 12.9563 18.9102 13.2356 18.9102ZM22.923 13.2372C23.2019 13.2372 23.4372 13.142 23.629 12.9515C23.8207 12.7611 23.9166 12.5251 23.9166 12.2436C23.9166 11.9621 23.8221 11.7261 23.633 11.5356C23.4439 11.3452 23.2082 11.25 22.9258 11.25C22.6435 11.25 22.4069 11.3449 22.2159 11.5348C22.0249 11.7247 21.9294 11.96 21.9294 12.2408C21.9294 12.5215 22.0253 12.7577 22.2171 12.9495C22.4089 13.1413 22.6442 13.2372 22.923 13.2372Z" fill="#444748"/>
</g>
<defs>
<filter id="filter0_d_347_845" x="0" y="0" width="36.1665" height="37.834" filterUnits="userSpaceOnUse" color-interpolation-filters="sRGB">
<feFlood flood-opacity="0" result="BackgroundImageFix"/>
<feColorMatrix in="SourceAlpha" type="matrix" values="0 0 0 0 0 0 0 0 0 0 0 0 0 0 0 0 0 0 127 0" result="hardAlpha"/>
<feOffset dy="1"/>
<feGaussianBlur stdDeviation="1"/>
<feComposite in2="hardAlpha" operator="out"/>
<feColorMatrix type="matrix" values="0 0 0 0 0 0 0 0 0 0 0 0 0 0 0 0 0 0 0.05 0"/>
<feBlend mode="normal" in2="BackgroundImageFix" result="effect1_dropShadow_347_845"/>
<feBlend mode="normal" in="SourceGraphic" in2="effect1_dropShadow_347_845" result="shape"/>
</filter>
</defs>
</svg>
