<svg width="38" height="38" viewBox="0 0 38 38" fill="none" xmlns="http://www.w3.org/2000/svg">
<g filter="url(#filter0_d_347_847)">
<rect x="2" y="1" width="33.8333" height="33.8333" rx="16.9166" fill="white" fill-opacity="0.01" shape-rendering="crispEdges"/>
<rect x="2.5" y="1.5" width="32.8333" height="32.8333" rx="16.4166" stroke="#C4C7C7" shape-rendering="crispEdges"/>
<path d="M18.9166 21.3461C19.8728 21.3461 20.6835 21.0136 21.3485 20.3485C22.0136 19.6835 22.3461 18.8728 22.3461 17.9166C22.3461 16.9604 22.0136 16.1498 21.3485 15.4848C20.6835 14.8197 19.8728 14.4872 18.9166 14.4872C17.9604 14.4872 17.1498 14.8197 16.4848 15.4848C15.8197 16.1498 15.4872 16.9604 15.4872 17.9166C15.4872 18.8728 15.8197 19.6835 16.4848 20.3485C17.1498 21.0136 17.9604 21.3461 18.9166 21.3461ZM18.9166 20.0961C18.3012 20.0961 17.7842 19.8867 17.3653 19.4679C16.9465 19.0491 16.7371 18.532 16.7371 17.9166C16.7371 17.3012 16.9465 16.7842 17.3653 16.3653C17.7842 15.9465 18.3012 15.7371 18.9166 15.7371C19.532 15.7371 20.0491 15.9465 20.4679 16.3653C20.8867 16.7842 21.0961 17.3012 21.0961 17.9166C21.0961 18.532 20.8867 19.0491 20.4679 19.4679C20.0491 19.8867 19.532 20.0961 18.9166 20.0961ZM12.5064 24.1666C12.0855 24.1666 11.7292 24.0208 11.4375 23.7291C11.1458 23.4374 11 23.0811 11 22.6602V13.1731C11 12.7521 11.1458 12.3958 11.4375 12.1042C11.7292 11.8125 12.0855 11.6667 12.5064 11.6667H15.0513L16.5929 10H21.2403L22.782 11.6667H25.3269C25.7478 11.6667 26.1041 11.8125 26.3958 12.1042C26.6874 12.3958 26.8333 12.7521 26.8333 13.1731V22.6602C26.8333 23.0811 26.6874 23.4374 26.3958 23.7291C26.1041 24.0208 25.7478 24.1666 25.3269 24.1666H12.5064ZM12.5064 22.9166H25.3269C25.4017 22.9166 25.4631 22.8926 25.5112 22.8445C25.5593 22.7964 25.5833 22.735 25.5833 22.6602V13.1731C25.5833 13.0983 25.5593 13.0368 25.5112 12.9888C25.4631 12.9407 25.4017 12.9166 25.3269 12.9166H22.2243L20.6955 11.25H17.1378L15.6089 12.9166H12.5064C12.4316 12.9166 12.3702 12.9407 12.3221 12.9888C12.274 13.0368 12.25 13.0983 12.25 13.1731V22.6602C12.25 22.735 12.274 22.7964 12.3221 22.8445C12.3702 22.8926 12.4316 22.9166 12.5064 22.9166Z" fill="#444748"/>
</g>
<defs>
<filter id="filter0_d_347_847" x="0" y="0" width="37.8335" height="37.834" filterUnits="userSpaceOnUse" color-interpolation-filters="sRGB">
<feFlood flood-opacity="0" result="BackgroundImageFix"/>
<feColorMatrix in="SourceAlpha" type="matrix" values="0 0 0 0 0 0 0 0 0 0 0 0 0 0 0 0 0 0 127 0" result="hardAlpha"/>
<feOffset dy="1"/>
<feGaussianBlur stdDeviation="1"/>
<feComposite in2="hardAlpha" operator="out"/>
<feColorMatrix type="matrix" values="0 0 0 0 0 0 0 0 0 0 0 0 0 0 0 0 0 0 0.05 0"/>
<feBlend mode="normal" in2="BackgroundImageFix" result="effect1_dropShadow_347_847"/>
<feBlend mode="normal" in="SourceGraphic" in2="effect1_dropShadow_347_847" result="shape"/>
</filter>
</defs>
</svg>
