<svg width="20" height="20" viewBox="0 0 20 20" fill="none" xmlns="http://www.w3.org/2000/svg">
<path d="M14.1442 10.1922L10.1865 6.36342C9.70829 5.90188 9.30605 5.38813 8.97977 4.82216C8.65349 4.25618 8.49035 3.63982 8.49035 2.97305C8.49035 2.1472 8.77939 1.44523 9.35749 0.86714C9.93558 0.289047 10.6376 0 11.4634 0C12.0031 0 12.5015 0.130129 12.9586 0.390388C13.4156 0.650648 13.8108 0.98206 14.1442 1.38463C14.4775 0.98206 14.8727 0.650648 15.3297 0.390388C15.7868 0.130129 16.2852 0 16.8249 0C17.6508 0 18.3528 0.289047 18.9308 0.86714C19.5089 1.44523 19.798 2.1472 19.798 2.97305C19.798 3.63982 19.6374 4.25618 19.3163 4.82216C18.9951 5.38813 18.5954 5.90188 18.1172 6.36342L14.1442 10.1922ZM14.1442 8.10384L17.0038 5.33268C17.3397 5.00319 17.6394 4.64486 17.9028 4.25767C18.1663 3.87049 18.298 3.44229 18.298 2.97305C18.298 2.56151 18.1554 2.21311 17.8701 1.92785C17.5849 1.64259 17.2365 1.49996 16.8249 1.49996C16.5083 1.49996 16.2185 1.58266 15.9557 1.74805C15.6929 1.91344 15.4608 2.12306 15.2595 2.37691L14.1442 3.73457L13.0288 2.37691C12.8275 2.12306 12.5955 1.91344 12.3326 1.74805C12.0698 1.58266 11.7801 1.49996 11.4634 1.49996C11.0519 1.49996 10.7035 1.64259 10.4182 1.92785C10.1329 2.21311 9.99031 2.56151 9.99031 2.97305C9.99031 3.44229 10.122 3.87049 10.3855 4.25767C10.649 4.64486 10.9486 5.00319 11.2845 5.33268L14.1442 8.10384ZM4.99993 16.0769L12.2576 18.1307L18.2269 16.2808C18.1756 16.0538 18.0698 15.8798 17.9095 15.7586C17.7492 15.6375 17.5678 15.5769 17.3653 15.5769H12.468C12.0316 15.5769 11.6609 15.5602 11.3557 15.5269C11.0506 15.4936 10.7371 15.4205 10.4153 15.3077L8.15765 14.5615L8.60187 13.0923L10.6269 13.7962C10.9294 13.8987 11.2788 13.9686 11.675 14.0058C12.0711 14.043 12.6346 14.0667 13.3653 14.0769C13.3653 13.8295 13.3096 13.616 13.198 13.4365C13.0865 13.257 12.9397 13.1359 12.7576 13.0731L6.95572 10.9423C6.93649 10.9359 6.91886 10.9311 6.90283 10.9279C6.88681 10.9247 6.86918 10.9231 6.84995 10.9231H4.99993V16.0769ZM0 18.9999V9.42311H6.83863C6.94361 9.42311 7.04994 9.43465 7.15763 9.45772C7.26533 9.4808 7.36533 9.50772 7.45763 9.53849L13.2846 11.6846C13.7384 11.8526 14.1153 12.1497 14.4153 12.576C14.7153 13.0023 14.8653 13.5026 14.8653 14.0769H17.3653C18.0833 14.0769 18.6682 14.3087 19.1201 14.7721C19.572 15.2356 19.798 15.8372 19.798 16.5769V17.3846L12.3076 19.7115L4.99993 17.6269V18.9999H0ZM1.49996 17.5H3.49996V10.9231H1.49996V17.5Z" fill="#755B00"/>
</svg>
