<svg width="27" height="27" viewBox="0 0 27 27" fill="none" xmlns="http://www.w3.org/2000/svg">
<path d="M21.4269 26.0307L11.9769 16.5346C11.4481 16.7634 10.9104 16.9398 10.3641 17.0639C9.81768 17.1879 9.23799 17.2499 8.62497 17.2499C6.22915 17.2499 4.19269 16.4114 2.51562 14.7343C0.838539 13.0573 0 11.0208 0 8.62497C0 7.84998 0.0985557 7.10913 0.295667 6.4024C0.492779 5.69568 0.773062 5.02309 1.13652 4.38463L6.52497 9.74424L9.74424 6.52497L4.41348 1.16537C5.05194 0.80191 5.72017 0.516819 6.41818 0.310091C7.11619 0.103364 7.85179 0 8.62497 0C11.0208 0 13.0573 0.838539 14.7343 2.51562C16.4114 4.1927 17.2499 6.22915 17.2499 8.62497C17.2499 9.25767 17.1903 9.8471 17.0711 10.3933C16.9519 10.9394 16.773 11.4673 16.5346 11.9769L26.0307 21.4269C26.2923 21.6918 26.423 22.0119 26.423 22.3871C26.423 22.7624 26.2933 23.0797 26.0339 23.3391L23.3103 26.0628C23.0509 26.3222 22.7375 26.4471 22.3702 26.4375C22.0029 26.4278 21.6885 26.2923 21.4269 26.0307ZM22.3846 23.7808L23.7577 22.4077L13.7683 12.4182C14.1894 11.899 14.5 11.3081 14.7 10.6456C14.9 9.98315 15 9.30959 15 8.62497C15 6.9615 14.4058 5.48937 13.2173 4.20859C12.0288 2.92781 10.5249 2.29993 8.70568 2.32494L11.9567 5.57594C12.2278 5.84709 12.3634 6.16344 12.3634 6.52497C12.3634 6.88651 12.2278 7.20285 11.9567 7.474L7.474 11.9567C7.20285 12.2278 6.88651 12.3634 6.52497 12.3634C6.16344 12.3634 5.84709 12.2278 5.57594 11.9567L2.32494 8.70568C2.32877 10.6307 2.97589 12.161 4.26629 13.2966C5.55668 14.4322 7.00958 15 8.62497 15C9.28138 15 9.93779 14.9024 10.5942 14.7072C11.2506 14.512 11.8509 14.2067 12.3952 13.7913L22.3846 23.7808Z" fill="#755B00"/>
</svg>
