<svg width="21" height="21" viewBox="0 0 21 21" fill="none" xmlns="http://www.w3.org/2000/svg">
<path d="M0 11.1346V9.63459H5.49996V11.1346H0ZM6.38459 7.43841L4.43845 5.49227L5.49227 4.43845L7.43841 6.38459L6.38459 7.43841ZM9.63459 5.49996V0H11.1346V5.49996H9.63459ZM14.3846 7.43841L13.3307 6.38459L15.2769 4.43845L16.3307 5.49227L14.3846 7.43841ZM15.2692 11.1346V9.63459H20.7691V11.1346H15.2692ZM10.3846 12.8845C9.68586 12.8845 9.09452 12.6425 8.61056 12.1586C8.12659 11.6746 7.88461 11.0833 7.88461 10.3846C7.88461 9.68586 8.12659 9.09452 8.61056 8.61056C9.09452 8.12659 9.68586 7.88461 10.3846 7.88461C11.0833 7.88461 11.6746 8.12659 12.1586 8.61056C12.6425 9.09452 12.8845 9.68586 12.8845 10.3846C12.8845 11.0833 12.6425 11.6746 12.1586 12.1586C11.6746 12.6425 11.0833 12.8845 10.3846 12.8845ZM15.2769 16.3307L13.3307 14.3846L14.3846 13.3307L16.3307 15.2769L15.2769 16.3307ZM5.49227 16.3307L4.43845 15.2769L6.38459 13.3307L7.43841 14.3846L5.49227 16.3307ZM9.63459 20.7691V15.2692H11.1346V20.7691H9.63459Z" fill="#755B00"/>
</svg>
